TITLE ""
FILE "P1Q_j_1749-1762.mp3" MP3
  TRACK 01 AUDIO
    TITLE "P1Q_j_1749-1762_01"
    INDEX 01 00:00:00
  TRACK 02 AUDIO
    TITLE "P1Q_j_1749-1762_02"
    INDEX 01 00:01:22
  TRACK 03 AUDIO
    TITLE "P1Q_j_1749-1762_03"
    INDEX 01 00:01:43
  TRACK 04 AUDIO
    TITLE "P1Q_j_1749-1762_04"
    INDEX 01 00:05:21
  TRACK 05 AUDIO
    TITLE "P1Q_j_1749-1762_05"
    INDEX 01 00:05:41
  TRACK 06 AUDIO
    TITLE "P1Q_j_1749-1762_06"
    INDEX 01 00:11:43
  TRACK 07 AUDIO
    TITLE "P1Q_j_1749-1762_07"
    INDEX 01 00:12:13
  TRACK 08 AUDIO
    TITLE "P1Q_j_1749-1762_08"
    INDEX 01 00:14:46
  TRACK 09 AUDIO
    TITLE "P1Q_j_1749-1762_09"
    INDEX 01 00:14:67
  TRACK 10 AUDIO
    TITLE "P1Q_j_1749-1762_10"
    INDEX 01 00:17:09
  TRACK 11 AUDIO
    TITLE "P1Q_j_1749-1762_11"
    INDEX 01 00:17:28
  TRACK 12 AUDIO
    TITLE "P1Q_j_1749-1762_12"
    INDEX 01 00:21:63
  TRACK 13 AUDIO
    TITLE "P1Q_j_1749-1762_13"
    INDEX 01 00:22:35
  TRACK 14 AUDIO
    TITLE "P1Q_j_1749-1762_14"
    INDEX 01 00:24:70
  TRACK 15 AUDIO
    TITLE "P1Q_j_1749-1762_15"
    INDEX 01 00:25:16
  TRACK 16 AUDIO
    TITLE "P1Q_j_1749-1762_16"
    INDEX 01 00:27:35
  TRACK 17 AUDIO
    TITLE "P1Q_j_1749-1762_17"
    INDEX 01 00:27:56
  TRACK 18 AUDIO
    TITLE "P1Q_j_1749-1762_18"
    INDEX 01 00:32:24
  TRACK 19 AUDIO
    TITLE "P1Q_j_1749-1762_19"
    INDEX 01 00:32:69
  TRACK 20 AUDIO
    TITLE "P1Q_j_1749-1762_20"
    INDEX 01 00:34:35
  TRACK 21 AUDIO
    TITLE "P1Q_j_1749-1762_21"
    INDEX 01 00:34:52
  TRACK 22 AUDIO
    TITLE "P1Q_j_1749-1762_22"
    INDEX 01 00:40:55
  TRACK 23 AUDIO
    TITLE "P1Q_j_1749-1762_23"
    INDEX 01 00:40:74
  TRACK 24 AUDIO
    TITLE "P1Q_j_1749-1762_24"
    INDEX 01 00:45:11
  TRACK 25 AUDIO
    TITLE "P1Q_j_1749-1762_25"
    INDEX 01 00:45:56
  TRACK 26 AUDIO
    TITLE "P1Q_j_1749-1762_26"
    INDEX 01 00:47:29
  TRACK 27 AUDIO
    TITLE "P1Q_j_1749-1762_27"
    INDEX 01 00:47:51
  TRACK 28 AUDIO
    TITLE "P1Q_j_1749-1762_28"
    INDEX 01 00:52:13
  TRACK 29 AUDIO
    TITLE "P1Q_j_1749-1762_29"
    INDEX 01 00:52:35
  TRACK 30 AUDIO
    TITLE "P1Q_j_1749-1762_30"
    INDEX 01 00:57:14
  TRACK 31 AUDIO
    TITLE "P1Q_j_1749-1762_31"
    INDEX 01 00:57:59
  TRACK 32 AUDIO
    TITLE "P1Q_j_1749-1762_32"
    INDEX 01 00:59:15
  TRACK 33 AUDIO
    TITLE "P1Q_j_1749-1762_33"
    INDEX 01 00:59:35
  TRACK 34 AUDIO
    TITLE "P1Q_j_1749-1762_34"
    INDEX 01 01:04:06
  TRACK 35 AUDIO
    TITLE "P1Q_j_1749-1762_35"
    INDEX 01 01:04:26
  TRACK 36 AUDIO
    TITLE "P1Q_j_1749-1762_36"
    INDEX 01 01:09:11
  TRACK 37 AUDIO
    TITLE "P1Q_j_1749-1762_37"
    INDEX 01 01:09:58
  TRACK 38 AUDIO
    TITLE "P1Q_j_1749-1762_38"
    INDEX 01 01:11:20
  TRACK 39 AUDIO
    TITLE "P1Q_j_1749-1762_39"
    INDEX 01 01:11:40
  TRACK 40 AUDIO
    TITLE "P1Q_j_1749-1762_40"
    INDEX 01 01:13:19
  TRACK 41 AUDIO
    TITLE "P1Q_j_1749-1762_41"
    INDEX 01 01:13:39
  TRACK 42 AUDIO
    TITLE "P1Q_j_1749-1762_42"
    INDEX 01 01:17:21
  TRACK 43 AUDIO
    TITLE "P1Q_j_1749-1762_43"
    INDEX 01 01:17:66
  TRACK 44 AUDIO
    TITLE "P1Q_j_1749-1762_44"
    INDEX 01 01:19:27
  TRACK 45 AUDIO
    TITLE "P1Q_j_1749-1762_45"
    INDEX 01 01:19:43
  TRACK 46 AUDIO
    TITLE "P1Q_j_1749-1762_46"
    INDEX 01 01:23:39
  TRACK 47 AUDIO
    TITLE "P1Q_j_1749-1762_47"
    INDEX 01 01:23:57
  TRACK 48 AUDIO
    TITLE "P1Q_j_1749-1762_48"
    INDEX 01 01:28:58
  TRACK 49 AUDIO
    TITLE "P1Q_j_1749-1762_49"
    INDEX 01 01:29:28
  TRACK 50 AUDIO
    TITLE "P1Q_j_1749-1762_50"
    INDEX 01 01:30:61
  TRACK 51 AUDIO
    TITLE "P1Q_j_1749-1762_51"
    INDEX 01 01:31:05
  TRACK 52 AUDIO
    TITLE "P1Q_j_1749-1762_52"
    INDEX 01 01:36:16
  TRACK 53 AUDIO
    TITLE "P1Q_j_1749-1762_53"
    INDEX 01 01:36:38
  TRACK 54 AUDIO
    TITLE "P1Q_j_1749-1762_54"
    INDEX 01 01:41:31
  TRACK 55 AUDIO
    TITLE "P1Q_j_1749-1762_55"
    INDEX 01 01:42:01
  TRACK 56 AUDIO
    TITLE "P1Q_j_1749-1762_56"
    INDEX 01 01:43:30
  TRACK 57 AUDIO
    TITLE "P1Q_j_1749-1762_57"
    INDEX 01 01:43:52
  TRACK 58 AUDIO
    TITLE "P1Q_j_1749-1762_58"
    INDEX 01 01:48:68
  TRACK 59 AUDIO
    TITLE "P1Q_j_1749-1762_59"
    INDEX 01 01:49:13
  TRACK 60 AUDIO
    TITLE "P1Q_j_1749-1762_60"
    INDEX 01 01:54:10
  TRACK 61 AUDIO
    TITLE "P1Q_j_1749-1762_61"
    INDEX 01 01:54:55
  TRACK 62 AUDIO
    TITLE "P1Q_j_1749-1762_62"
    INDEX 01 01:55:63
  TRACK 63 AUDIO
    TITLE "P1Q_j_1749-1762_63"
    INDEX 01 01:56:07
  TRACK 64 AUDIO
    TITLE "P1Q_j_1749-1762_64"
    INDEX 01 02:01:67
  TRACK 65 AUDIO
    TITLE "P1Q_j_1749-1762_65"
    INDEX 01 02:02:12
  TRACK 66 AUDIO
    TITLE "P1Q_j_1749-1762_66"
    INDEX 01 02:06:60
  TRACK 67 AUDIO
    TITLE "P1Q_j_1749-1762_67"
    INDEX 01 02:07:30
  TRACK 68 AUDIO
    TITLE "P1Q_j_1749-1762_68"
    INDEX 01 02:08:55
  TRACK 69 AUDIO
    TITLE "P1Q_j_1749-1762_69"
    INDEX 01 02:09:02
  TRACK 70 AUDIO
    TITLE "P1Q_j_1749-1762_70"
    INDEX 01 02:11:54
  TRACK 71 AUDIO
    TITLE "P1Q_j_1749-1762_71"
    INDEX 01 02:11:73
  TRACK 72 AUDIO
    TITLE "P1Q_j_1749-1762_72"
    INDEX 01 02:18:11
  TRACK 73 AUDIO
    TITLE "P1Q_j_1749-1762_73"
    INDEX 01 02:18:56
  TRACK 74 AUDIO
    TITLE "P1Q_j_1749-1762_74"
    INDEX 01 02:20:13
  TRACK 75 AUDIO
    TITLE "P1Q_j_1749-1762_75"
    INDEX 01 02:20:37
  TRACK 76 AUDIO
    TITLE "P1Q_j_1749-1762_76"
    INDEX 01 02:22:52
  TRACK 77 AUDIO
    TITLE "P1Q_j_1749-1762_77"
    INDEX 01 02:22:71
  TRACK 78 AUDIO
    TITLE "P1Q_j_1749-1762_78"
    INDEX 01 02:29:38
  TRACK 79 AUDIO
    TITLE "P1Q_j_1749-1762_79"
    INDEX 01 02:30:08
  TRACK 80 AUDIO
    TITLE "P1Q_j_1749-1762_80"
    INDEX 01 02:31:54
  TRACK 81 AUDIO
    TITLE "P1Q_j_1749-1762_81"
    INDEX 01 02:31:74
  TRACK 82 AUDIO
    TITLE "P1Q_j_1749-1762_82"
    INDEX 01 02:36:46
  TRACK 83 AUDIO
    TITLE "P1Q_j_1749-1762_83"
    INDEX 01 02:36:65
  TRACK 84 AUDIO
    TITLE "P1Q_j_1749-1762_84"
    INDEX 01 02:41:18
